<svg
   xmlns:dc="http://purl.org/dc/elements/1.1/"
   xmlns:cc="http://creativecommons.org/ns#"
   xmlns:rdf="http://www.w3.org/1999/02/22-rdf-syntax-ns#"
   xmlns:svg="http://www.w3.org/2000/svg"
   xmlns="http://www.w3.org/2000/svg"
   id="svg32"
   version="1.1"
   viewBox="0 0 380 280">
  <metadata
     id="metadata38">
    <rdf:RDF>
      <cc:Work
         rdf:about="">
        <dc:format>image/svg+xml</dc:format>
        <dc:type
           rdf:resource="http://purl.org/dc/dcmitype/StillImage" />
      </cc:Work>
    </rdf:RDF>
  </metadata>
  <defs
     id="defs36" />
  <svg
     height="100%"
     width="100%"
     id="svg7"
     version="1.1"
     viewBox="0 0 380 280">
    <linearGradient
       y2="0"
       x2="1"
       y1="0"
       x1="0"
       id="icon_color_gradient">
      <stop
         id="stop2"
         stop-opacity="1"
         stop-color="#9013fe"
         offset="0%" />
      <stop
         id="stop4"
         stop-opacity="1"
         stop-color="#4a90e2"
         offset="100%" />
    </linearGradient>
  </svg>
  <svg
     id="svg15"
     version="1.1"
     height="45.780537"
     width="64"
     y="109.10973"
     x="75.125">
    <g
       style="fill:url(#icon_color_gradient)"
       id="g13">
      <svg
         height="100%"
         width="100%"
         id="svg11"
         version="1.1"
         viewBox="0 0 2898 2073">
        <path
           style="fill-rule:evenodd"
           id="path9"
           d="m 354.324,26.26 c 0.345,5.644 1.802,17.231 3.238,25.75 19.013,112.804 97.507,261.485 218.298,413.49 24.915,31.353 56.99,68.785 89.117,104 17.053,18.692 73.265,75.412 101.506,102.424 l 17.983,17.2 -10.483,-0.812 C 754.367,686.793 638.39,687.514 602,689.382 498.476,694.695 408.555,705.801 325,723.594 194.907,751.296 92.799,791.454 25.836,841.253 l -10.665,7.931 1.794,5.158 c 9.37,26.95 26.92,64.452 43.128,92.158 24.308,41.554 49.042,73.563 83.907,108.59 44.49,44.696 88.321,76.447 150.257,108.846 20.635,10.795 108.031,51.31 119.961,55.612 6.265,2.259 50.792,8.231 92.282,12.377 73.562,7.35 156.349,10.791 232.5,9.665 l 43.5,-0.644 -3.5,3.173 c -23.987,21.747 -37.204,34.431 -63.38,60.821 -16.984,17.123 -30.709,31.293 -30.5,31.489 0.388,0.363 77.385,33.133 115.38,49.105 11.55,4.856 21.149,8.934 21.332,9.062 0.862,0.609 -154.292,192.99 -248.726,308.404 -83.82,102.443 -135.74,164.77 -186.082,223.381 -14.588,16.985 -27.328,31.919 -28.311,33.187 -1.722,2.221 -1.711,2.605 0.298,10.474 7.276,28.499 21.944,50.525 44.127,66.264 9.237,6.554 25.585,14.141 36.862,17.109 9.322,2.453 10.304,2.505 52.5,2.792 l 43,0.293 17,-3.78 c 94.008,-20.906 199.88,-72.785 318.5,-156.072 97.169,-68.226 188.665,-148.298 285.832,-250.146 14.44,-15.136 16.132,-16.615 15.443,-13.5 -1.287,5.809 -0.867,140.016 0.518,165.998 2.476,46.414 4.575,74.703 8.275,111.5 2.982,29.661 9.373,80.274 10.247,81.148 1.244,1.244 35.901,-21.027 48.374,-31.087 79.726,-64.299 124.886,-164.57 140.77,-312.561 1.288,-12 1.812,-46.826 3.04,-202 0.817,-103.125 1.487,-193.8 1.489,-201.5 v -14 l -10.747,-2.902 c -30.772,-8.311 -66.188,-25.856 -91.604,-45.381 -21.24,-16.317 -31.431,-26.226 -49.072,-47.719 -32.057,-39.054 -52.124,-89.52 -57.656,-144.998 -1.386,-13.897 -0.619,-41.366 1.671,-59.864 6.71,-54.199 29.586,-105.29 65.541,-146.378 2.73,-3.119 5.505,-6.791 6.168,-8.162 0.663,-1.37 3.681,-4.458 6.706,-6.862 3.025,-2.404 9.1,-7.419 13.5,-11.144 25.838,-21.875 51.539,-37.278 81.688,-48.959 10.486,-4.063 33.595,-11.131 36.392,-11.131 2.245,0 1.874,-18.483 -0.625,-31.142 C 1369.993,579.978 1324.13,512.194 1239.916,448.55 1203.394,420.944 1172.047,401.512 1095.5,359.02 975.548,292.435 859.137,235.232 687,158.289 614.369,125.824 533.058,90.888 369.543,21.889 361.867,18.65 355.161,16 354.641,16 c -0.573,0 -0.698,4.042 -0.317,10.26 M 2494.5,36.101 c -110.91,47.002 -140.065,59.46 -194,82.896 -207.046,89.969 -347.794,157.511 -485,232.742 -58.934,32.314 -95.828,54.084 -126.5,74.644 -81.302,54.497 -132.403,111.523 -159.868,178.405 -12.547,30.556 -20.128,61.366 -20.131,81.82 l -10e-4,10.107 10.25,2.754 c 23.853,6.408 50.307,17.578 71.494,30.186 10.598,6.307 28.672,19.595 39.698,29.187 3.818,3.321 7.268,5.837 7.666,5.591 0.748,-0.462 9.892,9.715 9.892,11.008 0,0.399 3.328,4.626 7.395,9.392 35.839,42 57.241,88.406 65.086,141.129 6.034,40.547 2.419,83.109 -10.479,123.372 -11.778,36.769 -35.006,75.765 -61.166,102.686 -7.241,7.452 -24.677,22.215 -38.36,32.48 -24.247,18.191 -55.939,33.85 -86.44,42.712 l -11.036,3.206 0.01,15.041 c 0.01,8.273 0.675,98.966 1.489,201.541 1.218,153.344 1.755,189.078 3.023,201 15.965,150.129 62.642,252.124 144.478,315.702 12.906,10.027 40.539,27.298 43.674,27.298 0.552,0 1.504,-3.937 2.115,-8.75 0.612,-4.812 2.241,-17.525 3.62,-28.25 5.417,-42.107 10.007,-95.615 12.74,-148.5 1.403,-27.162 1.758,-126.739 0.558,-157 l -0.792,-20 24.697,25.5 c 98.857,102.07 188.866,179.709 288.902,249.198 109.42,76.008 216.341,128.217 301.814,147.376 29.554,6.625 32.151,6.823 74.924,5.702 l 38.248,-1.002 10,-3.225 c 26.455,-8.531 45.592,-22.277 59.237,-42.549 7.904,-11.742 15.213,-28.89 18.253,-42.827 l 1.053,-4.828 -20.733,-24.172 c -32.659,-38.079 -34.8,-40.613 -74.924,-88.673 -70.688,-84.671 -133.015,-160.699 -227.49,-277.5 -86.218,-106.593 -142.26,-176.486 -141.793,-176.839 0.218,-0.165 2.647,-1.224 5.397,-2.352 2.75,-1.128 29.975,-12.626 60.5,-25.55 30.525,-12.925 58.988,-24.95 63.25,-26.722 4.262,-1.773 7.75,-3.59 7.75,-4.037 0,-1.436 -42.922,-44.712 -69.857,-70.433 -14.361,-13.713 -25.961,-25.082 -25.779,-25.264 0.182,-0.183 11.349,0.188 24.815,0.823 25.519,1.203 119.77,-0.058 159.821,-2.139 50.075,-2.602 110.699,-8.149 154,-14.091 l 22.5,-3.087 14,-6.046 c 16.177,-6.986 69.106,-31.271 90.89,-41.702 58.01,-27.78 107.356,-60.442 150.856,-99.851 62.437,-56.568 108.932,-124.296 141.332,-205.88 3.532,-8.893 6.403,-16.768 6.38,-17.5 -0.076,-2.386 -24.55,-19.841 -44.958,-32.065 -62.062,-37.172 -150.32,-69.46 -250.5,-91.642 -20.094,-4.45 -40.264,-8.359 -70,-13.568 -107.785,-18.882 -230.049,-27.86 -357,-26.216 l -45,0.583 4.04,-3.711 c 2.222,-2.041 10.772,-9.849 19,-17.352 18.288,-16.675 66.331,-65.208 91.61,-92.543 158.558,-171.456 270.841,-352.821 305.256,-493.064 6.961,-28.366 11.786,-65.375 8.496,-65.161 -0.771,0.051 -22.552,9.055 -48.402,20.01" />
      </svg>
    </g>
  </svg>
  <g
     transform="translate(225,140)"
     id="container">
    <g
       id="text17"
       style="font-size:40px;font-family:DianHei3;fill:#000000;fill-opacity:1"
       aria-label="z">
      <path
         id="path40"
         style="font-size:40px;font-family:DianHei3;fill:#000000;fill-opacity:1"
         d="m -78.355,14.845 v -3.36 l 12.8,-14.76 h -12.2 v -4.28 h 19.32 v 3.4 l -12.84,14.76 h 13.28 v 4.24 z" />
    </g>
    <g
       id="text19"
       style="font-size:40px;font-family:DianHei3;fill:#000000;fill-opacity:1"
       aria-label="t">
      <path
         id="path43"
         style="font-size:40px;font-family:DianHei3;fill:#000000;fill-opacity:1"
         d="m -54.765,-7.355 h 4.08 v -6 h 5.24 v 6 h 5.36 v 4.28 h -5.36 v 12.08 q 0,1.24 0.84,1.64 0.84,0.36 2.12,0.36 1.32,0 2.36,-0.52 v 4.24 q -1.12,0.36 -2.32,0.48 -1.16,0.16 -2.36,0.16 -1.28,0 -2.36,-0.24 -1.04,-0.24 -1.84,-0.8 -0.8,-0.56 -1.24,-1.48 -0.44,-0.92 -0.44,-2.36 v -13.56 h -4.08 z" />
    </g>
    <g
       id="text21"
       style="font-size:40px;font-family:DianHei3;fill:#000000;fill-opacity:1"
       aria-label="x">
      <path
         id="path46"
         style="font-size:40px;font-family:DianHei3;fill:#000000;fill-opacity:1"
         d="m -29.94,3.605 -8.28,-11.16 h 5.88 l 5.32,7.2 5.36,-7.2 h 5.88 l -8.28,11.16 8.4,11.24 h -5.88 l -5.48,-7.28 -5.4,7.28 h -5.88 z" />
    </g>
    <g
       id="text23"
       style="font-size:40px;font-family:DianHei3;fill:#000000;fill-opacity:1"
       aria-label="t">
      <path
         id="path49"
         style="font-size:40px;font-family:DianHei3;fill:#000000;fill-opacity:1"
         d="m -14.015,-7.355 h 4.08 v -6 h 5.24 v 6 h 5.36 v 4.28 h -5.36 v 12.08 q 0,1.24 0.84,1.64 0.84,0.36 2.12,0.36 1.32,0 2.36,-0.52 v 4.24 q -1.12,0.36 -2.32,0.48 -1.16,0.16 -2.36,0.16 -1.28,0 -2.36,-0.24 -1.04,-0.24 -1.84,-0.8 -0.8,-0.56 -1.24,-1.48 -0.44,-0.92 -0.44,-2.36 v -13.56 h -4.08 z" />
    </g>
    <g
       id="text25"
       style="font-size:40px;font-family:DianHei3;fill:#000000;fill-opacity:1"
       aria-label="e">
      <path
         id="path52"
         style="font-size:40px;font-family:DianHei3;fill:#000000;fill-opacity:1"
         d="m 4.05,3.725 q 0,-2.36 0.64,-4.52 0.68,-2.16 2.04,-3.8 1.36,-1.64 3.4,-2.6 2.04,-1 4.8,-1 2.8,0 4.84,0.96 2.04,0.92 3.36,2.52 1.32,1.56 1.96,3.64 0.64,2.08 0.64,4.4 v 2.24 H 9.33 q 0,1.16 0.36,2.2 0.4,1.04 1.16,1.84 0.76,0.76 1.88,1.2 1.12,0.44 2.52,0.44 2.04,0 3.36,-0.76 1.36,-0.8 2.16,-2.12 l 4.84,0.76 q -1.44,3.2 -3.96,4.8 -2.48,1.6 -6.44,1.6 -2.8,0 -4.92,-0.92 -2.08,-0.92 -3.48,-2.48 -1.36,-1.6 -2.08,-3.76 -0.68,-2.16 -0.68,-4.64 z m 5.28,-2.2 h 11.12 q 0,-0.88 -0.36,-1.84 -0.32,-0.96 -1,-1.76 -0.68,-0.8 -1.72,-1.28 -1.04,-0.52 -2.44,-0.52 -1.4,0 -2.44,0.52 -1.04,0.48 -1.76,1.28 -0.68,0.76 -1.04,1.72 -0.36,0.96 -0.36,1.88 z" />
    </g>
    <g
       id="text27"
       style="font-size:40px;font-family:DianHei3;fill:#000000;fill-opacity:1"
       aria-label="c">
      <path
         id="path55"
         style="font-size:40px;font-family:DianHei3;fill:#000000;fill-opacity:1"
         d="m 30.01,3.645 q 0,-2.48 0.72,-4.64 0.76,-2.16 2.16,-3.76 1.44,-1.6 3.52,-2.52 2.08,-0.92 4.76,-0.92 2.36,0 4.08,0.68 1.72,0.64 2.92,1.68 1.2,1 1.92,2.24 0.76,1.2 1.12,2.32 l -5.24,0.64 q -0.8,-1.52 -1.96,-2.24 -1.12,-0.76 -2.84,-0.76 -2.64,0 -4.24,1.92 -1.6,1.92 -1.6,5.36 0,3.4 1.52,5.4 1.52,1.96 4.2,1.96 3.6,0 5.16,-3.28 l 5.2,0.72 q -0.44,1.28 -1.24,2.56 -0.8,1.24 -2.04,2.24 -1.24,1 -3,1.64 -1.76,0.64 -4.08,0.64 -2.6,0 -4.64,-0.96 -2.04,-0.92 -3.48,-2.52 -1.4,-1.6 -2.16,-3.76 -0.76,-2.2 -0.76,-4.64 z" />
    </g>
    <g
       id="text29"
       style="font-size:40px;font-family:DianHei3;fill:#000000;fill-opacity:1"
       aria-label="h">
      <path
         id="path58"
         style="font-size:40px;font-family:DianHei3;fill:#000000;fill-opacity:1"
         d="m 56.77,-15.635 h 5.32 v 10.72 q 1.48,-1.56 3.28,-2.4 1.8,-0.88 3.72,-0.88 4,0 5.96,2.12 2,2.08 2,6.12 v 14.8 h -5.28 v -13.8 q 0,-2.36 -1.16,-3.64 -1.16,-1.28 -3.2,-1.28 -1.48,0 -2.8,0.56 -1.28,0.56 -2.52,1.76 v 16.4 h -5.32 z" />
    </g>
  </g>
</svg>
